# xmcd
#
# Track frame offsets:
#  150
#  21962
#  42292
#  58051
#  79244
#  95417
#  107757
#  127201
#  145591
#  158619
#
# Disc length: 2688 seconds
#
# Revision: 0
# Processed by: cddbd v1.5.1PL0 Copyright (c) Steve Scherf et al.
# Submitted via: Collectorz.com Music Collector 6.9
#
DISCID=820a7e0a
DTITLE=Cafissi Matt - Heat Of Emotion
DYEAR=2004
DGENRE=Instrumental
TTITLE0=Life Goes On
TTITLE1=Desert Rose
TTITLE2=Close Your Eyes
TTITLE3=Shine
TTITLE4=Without You
TTITLE5=Amazing
TTITLE6=Rain
TTITLE7=Navajo Stars
TTITLE8=It's Alright
TTITLE9=The X-Jam
EXTD=
EXTT0=
EXTT1=
EXTT2=
EXTT3=
EXTT4=
EXTT5=
EXTT6=
EXTT7=
EXTT8=
EXTT9=
PLAYORDER=
